<svg width="79" height="27" viewBox="0 0 79 27" fill="none" xmlns="http://www.w3.org/2000/svg">
    <g clip-path="url(#clip0_12_209)">
        <path fill-rule="evenodd" clip-rule="evenodd" d="M78.3289 10.1093H71.5932H60.7576C60.7601 10.1005 60.7623 10.0915 60.7645 10.0828C61.1611 8.5861 62.5446 7.56316 64.0929 7.56316H70.6277H77.3635C75.6548 4.15038 72.5295 1.5708 68.7574 0.593894C67.682 0.313237 66.5526 0.165051 65.3895 0.165051C64.2265 0.165051 63.0994 0.313237 62.0217 0.593894C58.2496 1.56833 55.1242 4.14813 53.4134 7.56316C53.0092 8.36921 52.6837 9.22016 52.4501 10.1093C52.156 11.2074 52.0011 12.3635 52.0011 13.5537C52.0011 14.6335 52.1293 15.6842 52.3716 16.6903H59.1073H70.1003C70.0981 16.6991 70.0958 16.7081 70.0938 16.7168C69.7357 18.2041 68.3771 19.2342 66.8472 19.2342H59.9987H53.2629C54.9359 22.8017 58.1354 25.5097 62.0217 26.5133C63.0994 26.794 64.2265 26.9422 65.3895 26.9422C66.5526 26.9422 67.682 26.794 68.7574 26.5133C72.644 25.5072 75.8435 22.8017 77.5162 19.2342C77.8956 18.4282 78.1965 17.5748 78.4078 16.6903C78.65 15.6842 78.778 14.6335 78.778 13.5537C78.778 12.3635 78.6233 11.2074 78.3289 10.1093Z" fill="white" />
        <path fill-rule="evenodd" clip-rule="evenodd" d="M49.4912 0.0174904H27.3528V8.92778H33.9671L33.9669 27.0019H42.877L42.8772 8.92778H49.4912V0.0174904Z" fill="white" />
        <mask id="mask0_12_209" style="mask-type:alpha" maskUnits="userSpaceOnUse" x="0" y="0" width="25" height="28">
            <path d="M0.5 0H24.8853V27.003H0.5V0Z" fill="white" />
        </mask>
        <g mask="url(#mask0_12_209)">
            <path fill-rule="evenodd" clip-rule="evenodd" d="M10.8648 6.58638H12.1277C13.4502 6.58638 14.5223 7.65849 14.5223 8.98095C14.5223 10.3036 13.4502 11.3755 12.1277 11.3755H10.8648V6.58638ZM13.4414 17.962H13.8215C18.6917 17.962 22.64 14.0139 22.64 9.14373V8.81839C22.64 3.94821 18.6917 -6.86646e-05 13.8215 -6.86646e-05H0.501796V17.7379H0.500449L0.5 27.0032H24.8853L13.4414 17.962Z" fill="white" />
        </g>
    </g>
    <defs>
        <clipPath id="clip0_12_209">
            <rect width="79" height="27" fill="white" />
        </clipPath>
    </defs>
</svg>
