<svg width="140" height="26" viewBox="0 0 140 26" fill="none" xmlns="http://www.w3.org/2000/svg">
    <path fill-rule="evenodd" clip-rule="evenodd" d="M78.6899 13.4675C78.6899 8.28509 82.8909 4.0861 88.0711 4.0861C92.5673 4.0861 96.3234 7.2501 97.2361 11.4718H100.383C99.4292 5.53081 94.2802 0.995272 88.0711 0.995272C81.182 0.995272 75.5988 6.57847 75.5988 13.4675C75.5988 20.3543 81.182 25.9398 88.0711 25.9398C94.2324 25.9398 99.3502 21.4705 100.36 15.6003H97.2047C96.2404 19.7533 92.5174 22.8464 88.0711 22.8464C82.8909 22.8464 78.6899 18.6477 78.6899 13.4675Z" fill="#333333" />
    <path fill-rule="evenodd" clip-rule="evenodd" d="M105.75 17.1073C105.75 13.9599 108.312 11.3991 111.461 11.3991C114.608 11.3991 117.169 13.9599 117.169 17.1073C117.169 20.2544 114.608 22.8154 111.461 22.8154C108.312 22.8154 105.75 20.2544 105.75 17.1073ZM102.805 17.1073C102.805 21.8862 106.68 25.7609 111.461 25.7609C116.24 25.7609 120.114 21.8862 120.114 17.1073C120.114 12.3262 116.24 8.45131 111.461 8.45131C106.68 8.45131 102.805 12.3262 102.805 17.1073Z" fill="#333333" />
    <path fill-rule="evenodd" clip-rule="evenodd" d="M122.355 25.761H125.265V17.1061C125.265 13.9335 127.837 11.3615 131.01 11.3615C134.182 11.3615 136.754 13.9335 136.754 17.1061V25.761H139.665V17.1061C139.665 12.3263 135.79 8.45135 131.01 8.45135C126.23 8.45135 122.355 12.3263 122.355 17.1061V25.761Z" fill="#333333" />
    <path fill-rule="evenodd" clip-rule="evenodd" d="M66.4682 10.3064H56.4361C56.4384 10.2981 56.4407 10.29 56.4428 10.2817C56.8099 8.89601 58.0905 7.94895 59.5242 7.94895H65.5741H71.8102C70.2285 4.78952 67.335 2.40108 63.8428 1.49664C62.847 1.2368 61.8015 1.09981 60.7247 1.09981C59.6477 1.09981 58.6044 1.2368 57.6066 1.49664C54.1142 2.399 51.2206 4.78723 49.6367 7.94895C49.2625 8.69541 48.9611 9.48324 48.7449 10.3064C48.4728 11.3229 48.3291 12.3934 48.3291 13.4951C48.3291 14.4948 48.4478 15.4678 48.6723 16.3991H54.9085H65.0858C65.0839 16.4072 65.0819 16.4155 65.0798 16.4236C64.7484 17.8006 63.4904 18.7543 62.074 18.7543H55.7335H49.4974C51.0462 22.0571 54.0084 24.5643 57.6066 25.4935C58.6044 25.7533 59.6477 25.8905 60.7247 25.8905C61.8015 25.8905 62.847 25.7533 63.8428 25.4935C67.441 24.5622 70.4032 22.0571 71.9518 18.7543C72.3029 18.008 72.5814 17.2181 72.777 16.3991C73.0015 15.4678 73.12 14.4948 73.12 13.4951C73.12 12.3934 72.9766 11.3229 72.7043 10.3064H66.4682Z" fill="#333333" />
    <path fill-rule="evenodd" clip-rule="evenodd" d="M46.0057 0.962969H25.5094V9.21232H31.6329L31.6327 25.9457H39.882L39.8822 9.21232H46.0057V0.962969Z" fill="#333333" />
    <mask id="mask0_6_2" style="mask-type:alpha" maskUnits="userSpaceOnUse" x="0" y="0" width="24" height="26">
        <path d="M0.648315 0.946838H23.2247V25.9468H0.648315V0.946838Z" fill="white" />
    </mask>
    <g mask="url(#mask0_6_2)">
        <path fill-rule="evenodd" clip-rule="evenodd" d="M10.2444 7.04462H11.4134C12.638 7.04462 13.6304 8.03721 13.6304 9.26157C13.6304 10.4861 12.638 11.4787 11.4134 11.4787H10.2444V7.04462ZM12.6299 17.5764H12.9818C17.4908 17.5764 21.146 13.9212 21.146 9.41227V9.11107C21.146 4.60214 17.4908 0.946734 12.9818 0.946734H0.650102V17.3689L0.648232 25.9469H23.2247L12.6299 17.5764Z" fill="#333333" />
    </g>
</svg>
