<svg width="330" height="233" viewBox="0 0 330 233" fill="none" xmlns="http://www.w3.org/2000/svg">
    <path fill-rule="evenodd" clip-rule="evenodd" d="M108.388 40.9197H125.488V11.4484H108.388V40.9197Z" fill="#ECECEC" />
    <path fill-rule="evenodd" clip-rule="evenodd" d="M60.6851 41.3888H74.1883V4.59901H60.6851V41.3888Z" fill="#ECECEC" />
    <path fill-rule="evenodd" clip-rule="evenodd" d="M60.5287 7.25651C60.5287 7.14317 63.6167 7.05126 67.4245 7.05126C71.2337 7.05126 74.3212 7.14317 74.3212 7.25651C74.3212 7.36986 71.2337 7.46176 67.4245 7.46176C63.6167 7.46176 60.5287 7.36986 60.5287 7.25651Z" fill="#FAFAFA" />
    <path fill-rule="evenodd" clip-rule="evenodd" d="M61.2766 9.00105C61.2766 8.88771 64.197 8.79624 67.7983 8.79624C71.4013 8.79624 74.3212 8.88771 74.3212 9.00105C74.3212 9.1144 71.4013 9.20631 67.7983 9.20631C64.197 9.20631 61.2766 9.1144 61.2766 9.00105Z" fill="#FAFAFA" />
    <path fill-rule="evenodd" clip-rule="evenodd" d="M67.0509 34.1347C66.9376 34.1347 66.8457 29.2612 66.8457 23.2507C66.8457 17.2389 66.9376 12.3663 67.0509 12.3663C67.1643 12.3663 67.2562 17.2389 67.2562 23.2507C67.2562 29.2612 67.1643 34.1347 67.0509 34.1347Z" fill="#FAFAFA" />
    <path fill-rule="evenodd" clip-rule="evenodd" d="M60.6851 37.4995C60.6851 37.3861 63.6448 37.2942 67.2952 37.2942C70.9463 37.2942 73.9056 37.3861 73.9056 37.4995C73.9056 37.6128 70.9463 37.7047 67.2952 37.7047C63.6448 37.7047 60.6851 37.6128 60.6851 37.4995Z" fill="#FAFAFA" />
    <path fill-rule="evenodd" clip-rule="evenodd" d="M60.6851 39.0782C60.6851 38.9648 63.7192 38.8729 67.461 38.8729C71.2045 38.8729 74.2378 38.9648 74.2378 39.0782C74.2378 39.1915 71.2045 39.2834 67.461 39.2834C63.7192 39.2834 60.6851 39.1915 60.6851 39.0782Z" fill="#FAFAFA" />
    <mask id="mask0_10_58" style="mask-type:alpha" maskUnits="userSpaceOnUse" x="0" y="0" width="330" height="233">
        <path d="M0 232.122H329.88V0.122009H0V232.122Z" fill="white" />
    </mask>
    <g mask="url(#mask0_10_58)">
        <path fill-rule="evenodd" clip-rule="evenodd" d="M74.1796 41.3888H85.0273V0.620476H74.1796V41.3888Z" fill="#E1E1E1" />
        <path fill-rule="evenodd" clip-rule="evenodd" d="M74.1116 19.344C74.148 19.2994 74.783 19.7514 75.79 20.5059C76.9072 21.3536 78.2359 22.3615 79.7037 23.4748C81.1702 24.5921 82.4967 25.603 83.6127 26.4529C84.6083 27.2214 85.214 27.7125 85.1807 27.7593C85.1484 27.8048 84.4831 27.3969 83.442 26.6875C82.4009 25.9785 80.986 24.965 79.4556 23.8017C77.9265 22.6381 76.5711 21.5462 75.6097 20.733C74.6477 19.919 74.0766 19.3878 74.1116 19.344Z" fill="#FAFAFA" />
        <path fill-rule="evenodd" clip-rule="evenodd" d="M74.0642 12.9611C74.1377 12.8754 76.6235 14.8841 79.6151 17.4473C82.6073 20.0119 84.9731 22.1598 84.8996 22.246C84.8256 22.3318 82.3407 20.323 79.3478 17.7589C76.3565 15.1953 73.9907 13.0469 74.0642 12.9611Z" fill="#FAFAFA" />
        <path fill-rule="evenodd" clip-rule="evenodd" d="M27.0362 41.4177H32.2244V2.5802H27.0362V41.4177Z" fill="#ECECEC" />
        <path fill-rule="evenodd" clip-rule="evenodd" d="M27.2513 7.87148C27.2513 8.00627 28.3393 8.11568 29.6819 8.11568C31.0246 8.11568 32.1126 8.00627 32.1126 7.87148C32.1126 7.73625 31.0246 7.62684 29.6819 7.62684C28.3393 7.62684 27.2513 7.73625 27.2513 7.87148Z" fill="#FAFAFA" />
        <path fill-rule="evenodd" clip-rule="evenodd" d="M27.1453 7.0257C27.1453 7.16093 28.2337 7.26991 29.5764 7.26991C30.9191 7.26991 32.007 7.16093 32.007 7.0257C32.007 6.89048 30.9191 6.78107 29.5764 6.78107C28.2337 6.78107 27.1453 6.89048 27.1453 7.0257Z" fill="#FAFAFA" />
        <path fill-rule="evenodd" clip-rule="evenodd" d="M27.2513 38.4145C27.2513 38.5497 28.3393 38.6591 29.6819 38.6591C31.0246 38.6591 32.1126 38.5497 32.1126 38.4145C32.1126 38.2792 31.0246 38.1703 29.6819 38.1703C28.3393 38.1703 27.2513 38.2792 27.2513 38.4145Z" fill="#FAFAFA" />
        <path fill-rule="evenodd" clip-rule="evenodd" d="M27.1453 37.5691C27.1453 37.7044 28.2337 37.8138 29.5764 37.8138C30.9191 37.8138 32.007 37.7044 32.007 37.5691C32.007 37.4339 30.9191 37.3249 29.5764 37.3249C28.2337 37.3249 27.1453 37.4339 27.1453 37.5691Z" fill="#FAFAFA" />
        <path fill-rule="evenodd" clip-rule="evenodd" d="M29.7878 32.4962C29.923 32.4962 30.0324 28.048 30.0324 22.5623C30.0324 17.0743 29.923 12.6275 29.7878 12.6275C29.6526 12.6275 29.5432 17.0743 29.5432 22.5623C29.5432 28.048 29.6526 32.4962 29.7878 32.4962Z" fill="#FAFAFA" />
        <path fill-rule="evenodd" clip-rule="evenodd" d="M50.2869 41.1691H60.6637V2.33163H50.2869V41.1691Z" fill="#E1E1E1" />
        <path fill-rule="evenodd" clip-rule="evenodd" d="M57.7448 41.667C57.7531 41.6703 57.7934 41.599 57.866 41.4559C57.94 41.3132 58.0397 41.0966 58.1618 40.8086C58.3977 40.2318 58.7316 39.3601 58.915 38.1754C59.0809 37.0113 59.1277 35.4489 58.3089 33.9028C57.9028 33.1443 57.2874 32.4222 56.4695 31.8734C55.6546 31.3369 54.5885 30.9916 53.4805 31.1675C52.929 31.2599 52.3851 31.4905 51.9352 31.8813C51.4844 32.2603 51.1527 32.8695 51.1907 33.5194C51.2201 34.1697 51.5938 34.757 52.0791 35.1653C52.5658 35.5763 53.1894 35.8581 53.8489 35.9163C55.1645 36.0704 56.5286 35.5159 57.5264 34.5776C58.5596 33.6537 59.1894 32.2726 59.3505 30.845C59.5211 29.4087 59.2931 27.9229 58.8126 26.5124C58.3268 25.1032 57.5356 23.7107 56.2691 22.7277C55.6393 22.245 54.8573 21.8967 54.0288 21.845C53.2021 21.7733 52.3137 22.0372 51.6975 22.6722C51.3903 22.9877 51.1842 23.4293 51.1645 23.887C51.1422 24.3452 51.2918 24.7877 51.5216 25.1566C51.9872 25.9054 52.7824 26.3846 53.6152 26.5855C55.312 26.9505 57.08 26.2792 58.1868 25.0546C59.3041 23.8262 59.7999 22.217 59.9662 20.6818C60.1216 19.1365 60.0065 17.5816 59.5198 16.1488C59.0459 14.723 58.1067 13.4394 56.8397 12.7006C55.6012 11.9497 54.0336 11.7033 52.7172 12.2687C52.0651 12.5343 51.487 13.1348 51.3763 13.8529C51.2455 14.5532 51.4393 15.2691 51.8485 15.8096C52.7185 16.9059 54.21 17.0884 55.3448 16.7343C56.5124 16.375 57.4069 15.5899 58.1023 14.7768C59.5045 13.1164 60.1102 11.1514 60.1715 9.45121C60.2323 7.73261 59.7588 6.28754 59.2126 5.23109C58.659 4.16676 58.0301 3.46567 57.5815 3.03066C57.3526 2.8171 57.1719 2.66042 57.0424 2.56546C56.9146 2.46874 56.8463 2.42235 56.8415 2.42891C56.7732 2.47837 57.9737 3.20615 59.0428 5.31643C59.5513 6.36369 59.9828 7.77813 59.8984 9.43852C59.8143 11.0831 59.2017 12.9742 57.8402 14.5518C57.1645 15.3278 56.3019 16.0577 55.2376 16.3733C54.2096 16.6906 52.8783 16.4844 52.1719 15.565C51.8328 15.116 51.6743 14.4989 51.7868 13.9326C51.8827 13.3567 52.3207 12.9002 52.8892 12.6626C54.0419 12.1724 55.4704 12.3869 56.6078 13.0866C57.7719 13.7733 58.631 14.9497 59.0787 16.3002C59.5334 17.6494 59.6432 19.1505 59.4905 20.6306C59.329 22.1002 58.8502 23.6083 57.827 24.7273C56.8367 25.8319 55.2109 26.4345 53.7251 26.1098C52.9986 25.9339 52.3185 25.5172 51.9365 24.8989C51.5347 24.2927 51.547 23.5002 52.0511 23.0048C52.5356 22.5032 53.287 22.2608 53.996 22.3269C54.7168 22.3706 55.4052 22.6713 55.9807 23.1094C57.1378 23.9999 57.9067 25.3212 58.3715 26.6634C58.8389 28.0201 59.0581 29.4411 58.9032 30.792C58.754 32.1404 58.1842 33.4025 57.2332 34.2634C56.3137 35.1386 55.0678 35.6445 53.8923 35.5141C52.7509 35.4196 51.638 34.5491 51.5676 33.4997C51.5334 32.9824 51.7877 32.487 52.1746 32.1518C52.5597 31.8104 53.0485 31.5942 53.5382 31.5076C54.5395 31.3382 55.5268 31.6389 56.3001 32.1343C57.0752 32.6397 57.6726 33.3185 58.0691 34.0345C58.8695 35.4839 58.8634 37.0069 58.7268 38.15C58.5758 39.3146 58.2752 40.1885 58.0699 40.7732C57.8572 41.3574 57.7264 41.6581 57.7448 41.667Z" fill="#FAFAFA" />
        <path fill-rule="evenodd" clip-rule="evenodd" d="M32.1417 41.1853H50.1455V5.81608H32.1417V41.1853Z" fill="#FAFAFA" />
        <path fill-rule="evenodd" clip-rule="evenodd" d="M32.7598 11.6926C32.7598 11.8279 36.6609 11.9373 41.4727 11.9373C46.2862 11.9373 50.1869 11.8279 50.1869 11.6926C50.1869 11.5578 46.2862 11.4484 41.4727 11.4484C36.6609 11.4484 32.7598 11.5578 32.7598 11.6926Z" fill="#E1E1E1" />
        <path fill-rule="evenodd" clip-rule="evenodd" d="M32.5363 14.3736C32.5363 14.5093 36.3879 14.6187 41.1376 14.6187C45.8894 14.6187 49.7402 14.5093 49.7402 14.3736C49.7402 14.2388 45.8894 14.1294 41.1376 14.1294C36.3879 14.1294 32.5363 14.2388 32.5363 14.3736Z" fill="#E1E1E1" />
        <path fill-rule="evenodd" clip-rule="evenodd" d="M31.9576 37.187C31.9576 37.3223 36.014 37.4312 41.0162 37.4312C46.0197 37.4312 50.0748 37.3223 50.0748 37.187C50.0748 37.0518 46.0197 36.9424 41.0162 36.9424C36.014 36.9424 31.9576 37.0518 31.9576 37.187Z" fill="#E1E1E1" />
        <path fill-rule="evenodd" clip-rule="evenodd" d="M32.2012 34.0351C32.2012 34.1704 36.1522 34.2798 41.0261 34.2798C45.901 34.2798 49.8515 34.1704 49.8515 34.0351C49.8515 33.9003 45.901 33.7909 41.0261 33.7909C36.1522 33.7909 32.2012 33.9003 32.2012 34.0351Z" fill="#E1E1E1" />
        <path fill-rule="evenodd" clip-rule="evenodd" d="M85.0189 40.9197H95.3957V2.08218H85.0189V40.9197Z" fill="#ECECEC" />
        <path fill-rule="evenodd" clip-rule="evenodd" d="M92.4769 41.4178C92.4848 41.4212 92.525 41.3498 92.5977 41.2071C92.6716 41.0645 92.7719 40.8479 92.8935 40.5599C93.1294 39.9826 93.4638 39.1109 93.6471 37.9266C93.813 36.7621 93.8594 35.1997 93.0406 33.654C92.6349 32.8951 92.0191 32.1735 91.2012 31.6243C90.3863 31.0877 89.3207 30.7424 88.2126 30.9183C87.6612 31.0111 87.1167 31.2413 86.6668 31.6321C86.2161 32.0116 85.8848 32.6207 85.9229 33.2702C85.9518 33.9205 86.3255 34.5078 86.8108 34.9161C87.2975 35.3275 87.9215 35.6089 88.5806 35.6676C89.8966 35.8212 91.2607 35.2671 92.2581 34.3288C93.2918 33.4046 93.9215 32.0238 94.0821 30.5962C94.2533 29.1595 94.0248 27.6737 93.5447 26.2637C93.0585 24.854 92.2677 23.4615 91.0007 22.4786C90.371 21.9958 89.5894 21.6475 88.7605 21.5958C87.9338 21.5241 87.0458 21.788 86.4292 22.423C86.122 22.7385 85.9159 23.1801 85.8962 23.6378C85.8739 24.0961 86.0235 24.5385 86.2537 24.9074C86.7189 25.6562 87.5145 26.1354 88.3474 26.3363C90.0436 26.7017 91.8117 26.0304 92.9185 24.8055C94.0357 23.577 94.5316 21.9683 94.6983 20.433C94.8537 18.8873 94.7382 17.3324 94.2519 15.9C93.7775 14.4738 92.8384 13.1902 91.5714 12.4515C90.3334 11.7005 88.7653 11.4541 87.4493 12.0195C86.7973 12.2856 86.2187 12.8856 86.1084 13.6038C85.9771 14.304 86.171 15.0204 86.5802 15.5604C87.4502 16.6567 88.9417 16.8396 90.0769 16.4851C91.2441 16.1263 92.1386 15.3407 92.834 14.528C94.2362 12.8677 94.8423 10.9022 94.9031 9.20202C94.964 7.48343 94.4905 6.03879 93.9447 4.9819C93.3907 3.91758 92.7618 3.21648 92.3137 2.78191C92.0843 2.56791 91.9036 2.41124 91.7741 2.31671C91.6463 2.21955 91.578 2.17316 91.5732 2.17973C91.5053 2.22918 92.7058 2.9574 93.7745 5.06724C94.283 6.11494 94.715 7.52938 94.6301 9.18933C94.5465 10.834 93.9338 12.725 92.5719 14.3027C91.8962 15.0786 91.0336 15.8086 89.9697 16.1241C88.9412 16.4418 87.61 16.2357 86.9036 15.3162C86.5644 14.8672 86.406 14.2497 86.5189 13.6834C86.6143 13.1075 87.0524 12.651 87.6209 12.4134C88.7736 11.9232 90.2021 12.1381 91.3395 12.8375C92.504 13.5241 93.3627 14.7005 93.8104 16.051C94.2655 17.4002 94.3749 18.9013 94.2222 20.3814C94.0607 21.851 93.5819 23.3595 92.5587 24.4781C91.5688 25.5827 89.9425 26.1853 88.4572 25.8606C87.7307 25.6847 87.0502 25.268 86.6682 24.6501C86.2664 24.0435 86.2787 23.251 86.7828 22.7556C87.2673 22.2545 88.0187 22.0116 88.7277 22.0777C89.4489 22.1214 90.1369 22.4221 90.7123 22.8602C91.8699 23.7508 92.6388 25.0724 93.1031 26.4142C93.5705 27.7709 93.7898 29.1919 93.6353 30.5429C93.4856 31.8912 92.9158 33.1534 91.9649 34.0146C91.0458 34.8899 89.7994 35.3954 88.624 35.2649C87.4826 35.1704 86.3701 34.3 86.2997 33.2509C86.2651 32.7332 86.5194 32.2378 86.9067 31.9026C87.2914 31.5612 87.7802 31.345 88.2699 31.2588C89.2712 31.0895 90.2585 31.3901 91.0318 31.8851C91.8069 32.3906 92.4042 33.0693 92.8012 33.7857C93.6012 35.2347 93.5951 36.7577 93.4585 37.9008C93.3075 39.0658 93.0069 39.9398 92.8016 40.524C92.5889 41.1082 92.4581 41.4089 92.4769 41.4178Z" fill="#FAFAFA" />
        <path fill-rule="evenodd" clip-rule="evenodd" d="M12.6166 40.9197H27.0362V0.122009H12.6166V40.9197Z" fill="#E1E1E1" />
        <path fill-rule="evenodd" clip-rule="evenodd" d="M95.3953 40.9197H108.881V4.59858H95.3953V40.9197Z" fill="#E1E1E1" />
        <path fill-rule="evenodd" clip-rule="evenodd" d="M109.22 22.7126C109.282 22.6465 109.905 23.5087 111.365 24.2369C112.087 24.5988 113.016 24.9025 114.078 24.9896C115.14 25.071 116.312 24.9078 117.444 24.4041C118.582 23.9179 119.626 23.2938 120.682 22.9284C121.727 22.5498 122.784 22.4378 123.622 22.6605C124.46 22.8667 125.034 23.3218 125.325 23.6925C125.625 24.0675 125.676 24.3375 125.659 24.3419C125.625 24.3599 125.523 24.1174 125.206 23.7988C124.896 23.482 124.341 23.0995 123.558 22.9428C122.781 22.7743 121.808 22.9025 120.811 23.2842C119.806 23.6518 118.782 24.2763 117.604 24.7822C116.429 25.3069 115.155 25.4763 114.044 25.366C112.928 25.2535 111.965 24.9034 111.23 24.4938C110.49 24.0894 109.976 23.6316 109.658 23.2898C109.338 22.9489 109.204 22.7253 109.22 22.7126Z" fill="#FAFAFA" />
        <path fill-rule="evenodd" clip-rule="evenodd" d="M108.917 26.3069C108.979 26.2408 109.602 27.1034 111.061 27.8311C111.784 28.1931 112.712 28.4968 113.774 28.5839C114.836 28.6653 116.009 28.5016 117.141 27.9983C118.279 27.5121 119.323 26.888 120.379 26.5226C121.424 26.1441 122.48 26.032 123.319 26.2548C124.156 26.4609 124.73 26.916 125.022 27.2867C125.322 27.6618 125.372 27.9318 125.355 27.9362C125.321 27.9537 125.22 27.7117 124.902 27.3931C124.593 27.0762 124.038 26.6937 123.255 26.5375C122.478 26.3686 121.504 26.4968 120.508 26.878C119.502 27.246 118.479 27.8705 117.301 28.3764C116.126 28.9012 114.851 29.0705 113.741 28.9602C112.624 28.8478 111.661 28.4977 110.927 28.088C110.186 27.6837 109.672 27.2259 109.355 26.8841C109.035 26.5432 108.901 26.3195 108.917 26.3069Z" fill="#FAFAFA" />
        <path fill-rule="evenodd" clip-rule="evenodd" d="M109.14 14.6736C109.14 14.5607 112.853 14.4684 117.433 14.4684C122.014 14.4684 125.726 14.5607 125.726 14.6736C125.726 14.7874 122.014 14.8789 117.433 14.8789C112.853 14.8789 109.14 14.7874 109.14 14.6736Z" fill="#FAFAFA" />
        <path fill-rule="evenodd" clip-rule="evenodd" d="M103.031 10.4511C103.002 10.5155 102.581 10.1478 101.857 10.3527C101.518 10.452 101.119 10.6975 100.945 11.1093C100.759 11.5128 100.906 12.0577 101.29 12.4266C101.673 12.796 102.223 12.922 102.62 12.7198C103.024 12.5299 103.254 12.1216 103.34 11.7789C103.516 11.0481 103.133 10.6424 103.196 10.6104C103.21 10.596 103.33 10.6603 103.455 10.8612C103.582 11.059 103.684 11.4082 103.624 11.834C103.56 12.2463 103.328 12.771 102.786 13.0585C102.242 13.3623 101.479 13.192 101.005 12.7216C100.518 12.2669 100.318 11.5106 100.6 10.9557C100.867 10.4034 101.382 10.1509 101.791 10.0704C102.215 9.99423 102.568 10.0839 102.77 10.2025C102.976 10.3198 103.045 10.4367 103.031 10.4511Z" fill="#FAFAFA" />
        <path fill-rule="evenodd" clip-rule="evenodd" d="M102.159 37.2841C102.045 37.2841 101.953 32.1926 101.953 25.9139C101.953 19.6325 102.045 14.5424 102.159 14.5424C102.272 14.5424 102.364 19.6325 102.364 25.9139C102.364 32.1926 102.272 37.2841 102.159 37.2841Z" fill="#FAFAFA" />
        <path fill-rule="evenodd" clip-rule="evenodd" d="M0 48.6798H139.578V40.7122H0V48.6798Z" fill="#ECECEC" />
        <path fill-rule="evenodd" clip-rule="evenodd" d="M127.391 48.6798H139.578V40.7122H127.391V48.6798Z" fill="#E1E1E1" />
        <path fill-rule="evenodd" clip-rule="evenodd" d="M155.152 87.9437L154.596 132.763C154.501 140.384 155.919 151.6 167.976 151.2C178.411 150.064 181.18 140.186 181.261 133.073C181.299 129.699 181.338 126.886 181.365 126.539C181.365 126.539 192.788 125.608 193.752 114.325C194.218 108.873 194.263 97.5651 194.185 87.3345C194.102 76.3468 185.582 67.2712 174.623 66.4707L173.534 66.3911C161.735 66.2191 154.997 76.1442 155.152 87.9437Z" fill="#FFC09D" />
        <path fill-rule="evenodd" clip-rule="evenodd" d="M181.365 126.539C181.365 126.539 174.216 126.437 166.979 121.119C166.979 121.119 169.963 129.63 181.306 129.435L181.365 126.539Z" fill="#FF9B6C" />
        <path fill-rule="evenodd" clip-rule="evenodd" d="M174.896 91.9581C174.672 92.1861 173.369 91.1375 171.478 91.0872C169.591 91.008 168.177 91.9638 167.978 91.72C167.881 91.6119 168.114 91.1949 168.73 90.7625C169.337 90.331 170.364 89.9249 171.541 89.9647C172.717 90.0067 173.696 90.4798 174.252 90.9516C174.821 91.4259 175.006 91.8566 174.896 91.9581Z" fill="#1A2E35" />
        <path fill-rule="evenodd" clip-rule="evenodd" d="M174.498 95.8678C174.467 96.6756 173.759 97.3159 172.915 97.2993C172.072 97.2831 171.412 96.617 171.443 95.8091C171.473 95.0017 172.182 94.361 173.025 94.3767C173.869 94.3929 174.528 95.0603 174.498 95.8678Z" fill="#1A2E35" />
        <path fill-rule="evenodd" clip-rule="evenodd" d="M179.631 105.107C179.63 105.008 180.723 104.9 182.487 104.805C182.934 104.791 183.359 104.734 183.456 104.437C183.584 104.124 183.433 103.633 183.256 103.102C182.918 101.999 182.564 100.843 182.192 99.6316C180.723 94.6946 179.694 90.6482 179.893 90.5905C180.093 90.5331 181.446 94.488 182.914 99.4259C183.266 100.643 183.602 101.802 183.922 102.911C184.053 103.428 184.299 104.02 184.025 104.668C183.881 104.99 183.538 105.207 183.249 105.262C182.959 105.328 182.709 105.315 182.488 105.312C180.722 105.278 179.631 105.207 179.631 105.107Z" fill="#1A2E35" />
        <path fill-rule="evenodd" clip-rule="evenodd" d="M152.852 104.46C152.818 104.434 152.713 104.549 152.481 104.644C152.254 104.737 151.869 104.791 151.472 104.623C150.667 104.29 150.032 102.964 150.052 101.568C150.06 100.862 150.236 100.198 150.508 99.6532C150.767 99.0966 151.149 98.7162 151.565 98.6598C151.978 98.5819 152.259 98.8401 152.345 99.062C152.44 99.2826 152.384 99.4348 152.425 99.4502C152.445 99.4703 152.596 99.3272 152.547 99.0046C152.521 98.8502 152.438 98.6637 152.262 98.5075C152.082 98.3491 151.813 98.2607 151.525 98.2799C150.927 98.297 150.366 98.8239 150.067 99.4222C149.735 100.022 149.522 100.768 149.511 101.56C149.497 103.121 150.236 104.613 151.341 104.982C151.88 105.146 152.341 105.001 152.583 104.828C152.83 104.647 152.878 104.475 152.852 104.46Z" fill="#FF9B6C" />
        <path fill-rule="evenodd" clip-rule="evenodd" d="M177.806 110.465C177.89 110.27 176.374 109.816 175.308 108.394C174.775 107.693 174.468 106.93 174.237 106.373C174.012 105.811 173.84 105.458 173.757 105.484C173.678 105.509 173.697 105.889 173.822 106.5C173.951 107.104 174.215 107.969 174.818 108.764C175.412 109.567 176.209 110.046 176.794 110.277C177.385 110.516 177.785 110.531 177.806 110.465Z" fill="#1A2E35" />
        <path fill-rule="evenodd" clip-rule="evenodd" d="M192.129 92.6701C191.905 92.8981 190.602 91.8495 188.711 91.7988C186.824 91.72 185.41 92.6758 185.211 92.432C185.114 92.3239 185.347 91.9069 185.963 91.4745C186.57 91.043 187.596 90.6369 188.773 90.6767C189.951 90.7187 190.929 91.1918 191.485 91.6635C192.054 92.1379 192.239 92.5686 192.129 92.6701Z" fill="#1A2E35" />
        <path fill-rule="evenodd" clip-rule="evenodd" d="M190.202 96.417C190.172 97.2248 189.463 97.8651 188.619 97.8485C187.777 97.8323 187.117 97.1662 187.147 96.3583C187.177 95.5509 187.886 94.9102 188.729 94.9259C189.573 94.9417 190.232 95.6095 190.202 96.417Z" fill="#1A2E35" />
        <path fill-rule="evenodd" clip-rule="evenodd" d="M260.707 137.68C260.707 134.402 257.575 134.402 257.575 134.402C256.381 132.834 255.039 133.404 255.039 133.404L249.966 136.825C249.22 138.108 244.297 142.955 244.297 142.955C242.955 141.956 242.955 139.961 241.346 137.538C239.737 135.115 236.092 135.4 236.092 135.4C236.092 135.4 238.927 141.814 239.225 145.805C239.524 149.797 237.047 160.93 237.047 160.93L251.386 164.96C251.386 164.96 252.292 158.853 253.898 158.359C255.832 157.766 256.908 154.913 256.908 154.913C258.999 150.678 263.244 144.523 263.84 141.387C264.437 138.251 260.707 137.68 260.707 137.68Z" fill="#FFC09D" />
        <path fill-rule="evenodd" clip-rule="evenodd" d="M154.068 130.591C163.202 136.331 172.407 138.49 181.73 134.773L195.744 138.353L209.532 230.472L128.691 231.174L132.673 209.778L142.696 132.905L154.068 130.591Z" fill="#4F5151" />
        <path fill-rule="evenodd" clip-rule="evenodd" d="M195.744 138.353C195.744 138.353 206.644 142.879 210.804 150.808C214.964 158.736 221.65 180.991 221.65 180.991L233.967 158.372L256.825 164.215C256.825 164.215 239.811 211.146 235.539 215.419C230.863 220.097 218.119 224.813 211.879 221.173C205.638 217.533 204.369 203.716 204.369 203.716L195.744 138.353Z" fill="#4F5151" />
        <path fill-rule="evenodd" clip-rule="evenodd" d="M196.496 176.882C196.433 176.882 196.382 172.791 196.382 167.745C196.382 162.697 196.433 158.606 196.496 158.606C196.559 158.606 196.61 162.697 196.61 167.745C196.61 172.791 196.559 176.882 196.496 176.882Z" fill="#1A2E35" />
        <path fill-rule="evenodd" clip-rule="evenodd" d="M200.763 143.617C200.794 143.63 200.573 144.2 200.231 145.126C199.888 146.051 199.433 147.335 198.987 148.771C198.543 150.209 198.194 151.526 197.953 152.483C197.713 153.441 197.573 154.036 197.54 154.029C197.524 154.026 197.54 153.873 197.582 153.6C197.623 153.326 197.696 152.932 197.797 152.448C197.997 151.478 198.323 150.148 198.769 148.704C199.217 147.261 199.699 145.979 200.081 145.066C200.272 144.61 200.435 144.244 200.556 143.995C200.675 143.745 200.749 143.61 200.763 143.617Z" fill="#1A2E35" />
        <path fill-rule="evenodd" clip-rule="evenodd" d="M141.217 167.401L143.746 132.691C143.746 132.691 124.718 134.457 118.421 147.881C113.115 159.194 98.4673 193.231 96.8992 197.887C92.2993 211.55 99.4861 230.335 129.114 229.246L132.492 210.672L141.217 167.401Z" fill="#4F5151" />
        <path fill-rule="evenodd" clip-rule="evenodd" d="M119.91 214.544C119.903 214.54 119.957 214.425 120.065 214.211C120.185 213.979 120.346 213.668 120.548 213.276C120.988 212.451 121.605 211.289 122.363 209.862C122.557 209.501 122.759 209.124 122.97 208.732C123.185 208.343 123.432 207.92 123.84 207.613C124.247 207.308 124.781 207.183 125.303 207.193C125.83 207.199 126.356 207.312 126.881 207.448C127.932 207.725 129.007 208.117 130.065 208.652C130.592 208.921 131.114 209.234 131.593 209.627L131.77 209.779C131.839 209.841 131.895 209.938 131.919 210.014C131.976 210.177 132 210.335 132.015 210.493C132.047 210.808 132.044 211.121 132.036 211.435C131.99 212.69 131.834 213.899 131.678 215.065C131.517 216.23 131.339 217.35 131.161 218.416C130.803 220.546 130.445 222.458 130.138 224.061C129.827 225.647 129.574 226.938 129.394 227.857C129.309 228.288 129.241 228.631 129.191 228.887C129.144 229.123 129.123 229.247 129.114 229.247C129.107 229.246 129.113 229.119 129.146 228.88C129.177 228.642 129.232 228.291 129.307 227.84C129.47 226.919 129.698 225.623 129.979 224.033C130.266 222.425 130.607 220.512 130.954 218.382C131.126 217.317 131.299 216.198 131.456 215.035C131.609 213.873 131.763 212.665 131.808 211.428C131.816 211.12 131.819 210.812 131.789 210.515C131.775 210.367 131.751 210.22 131.706 210.094C131.682 210.027 131.659 209.988 131.616 209.946L131.448 209.8C130.989 209.424 130.48 209.116 129.963 208.851C128.926 208.322 127.861 207.93 126.828 207.651C126.31 207.514 125.799 207.402 125.3 207.393C124.805 207.381 124.322 207.494 123.952 207.766C123.583 208.037 123.34 208.435 123.123 208.817C122.909 209.207 122.702 209.581 122.505 209.939C121.72 211.351 121.081 212.501 120.627 213.319C120.409 213.701 120.235 214.006 120.105 214.233C119.984 214.44 119.917 214.548 119.91 214.544Z" fill="#1A2E35" />
        <path fill-rule="evenodd" clip-rule="evenodd" d="M106.151 198.055C106.151 198.047 106.229 198.045 106.375 198.048C106.547 198.055 106.758 198.063 107.013 198.072C107.567 198.1 108.369 198.147 109.358 198.239C110.347 198.331 111.525 198.47 112.814 198.741C114.102 199.01 115.503 199.426 116.878 200.088C118.247 200.757 119.465 201.568 120.454 202.447C121.43 203.337 122.184 204.286 122.624 205.19C123.068 206.089 123.252 206.896 123.282 207.454C123.323 207.73 123.29 207.949 123.295 208.095C123.29 208.242 123.284 208.318 123.276 208.318C123.251 208.318 123.26 208.009 123.194 207.463C123.137 206.917 122.933 206.134 122.481 205.264C122.033 204.39 121.281 203.471 120.314 202.604C119.335 201.748 118.13 200.953 116.778 200.293C115.424 199.642 114.044 199.224 112.77 198.947C111.494 198.667 110.325 198.511 109.342 198.399C108.358 198.287 107.559 198.215 107.007 198.161C106.753 198.134 106.543 198.112 106.371 198.094C106.227 198.076 106.15 198.063 106.151 198.055Z" fill="#1A2E35" />
        <path fill-rule="evenodd" clip-rule="evenodd" d="M126.511 196.302C126.539 196.313 126.364 196.838 126.038 197.668C125.712 198.499 125.226 199.632 124.669 200.873C124.126 202.082 123.634 203.175 123.241 204.047C122.877 204.86 122.65 205.363 122.619 205.351C122.591 205.34 122.765 204.816 123.092 203.985C123.418 203.154 123.904 202.021 124.461 200.78C125.005 199.572 125.497 198.479 125.889 197.606C126.253 196.793 126.481 196.291 126.511 196.302Z" fill="#1A2E35" />
        <path fill-rule="evenodd" clip-rule="evenodd" d="M137.041 168.984C136.978 168.984 136.927 166.784 136.927 164.07C136.927 161.356 136.978 159.157 137.041 159.157C137.104 159.157 137.155 161.356 137.155 164.07C137.155 166.784 137.104 168.984 137.041 168.984Z" fill="#1A2E35" />
        <path fill-rule="evenodd" clip-rule="evenodd" d="M123.276 208.318C118.271 210.064 114.886 214.606 113.52 219.728C113.377 220.265 113.281 220.9 113.64 221.324C114.01 221.76 114.722 221.747 115.212 221.452C115.702 221.157 116.023 220.654 116.326 220.169C118.738 216.309 121.092 212.735 123.276 208.318Z" fill="black" />
        <path fill-rule="evenodd" clip-rule="evenodd" d="M117.067 198.415C114.449 196.96 111.439 196.335 108.45 196.155C107.279 196.084 106.115 196.22 104.967 196.461C103.405 196.789 101.608 197.579 101.266 198.701C104.859 197.576 110.148 198.317 113.826 199.12C117.537 199.931 120.551 202.034 122.619 205.351C121.733 202.554 119.635 199.842 117.067 198.415Z" fill="black" />
        <path fill-rule="evenodd" clip-rule="evenodd" d="M134.242 154.203C134.226 154.207 134.165 154.011 134.067 153.655C133.974 153.299 133.821 152.787 133.614 152.163C133.204 150.913 132.515 149.224 131.499 147.492C130.479 145.763 129.337 144.34 128.444 143.375C127.998 142.891 127.625 142.509 127.358 142.254C127.095 141.996 126.954 141.848 126.965 141.836C126.975 141.824 127.136 141.95 127.419 142.189C127.704 142.425 128.097 142.791 128.561 143.264C129.49 144.208 130.665 145.63 131.696 147.377C132.722 149.125 133.394 150.844 133.768 152.115C133.957 152.75 134.086 153.27 134.154 153.635C134.225 153.998 134.257 154.2 134.242 154.203Z" fill="#1A2E35" />
        <path fill-rule="evenodd" clip-rule="evenodd" d="M129.897 231.274H151.795V227.256H129.897V231.274Z" fill="#CE5652" />
        <path fill-rule="evenodd" clip-rule="evenodd" d="M141.23 231.138L157.164 184.126C157.828 182.168 159.603 180.858 161.595 180.858H229.326C231.509 180.858 233.048 183.092 232.351 185.25L217.531 231.16L141.23 231.138Z" fill="#FC5F4F" />
        <path fill-rule="evenodd" clip-rule="evenodd" d="M173.978 223.267C173.978 223.267 171.421 223.384 170.242 223.464C164.628 223.847 158.925 222.836 153.785 220.545C152.191 219.834 150.505 218.832 150.024 217.155C149.483 215.278 150.7 213.323 152.182 212.05C153.665 210.777 155.468 209.871 156.756 208.401C158.043 206.931 158.652 204.552 157.384 203.065L157.034 203.322C156.117 205.643 153.565 206.763 151.453 208.091C147.529 210.558 144.537 214.469 143.182 218.901C142.438 221.335 142.24 224.174 143.716 226.248C144.763 227.719 146.476 228.555 148.169 229.183C153.293 231.083 158.77 231.154 164.235 231.16C165.961 231.162 171.261 231.089 171.261 231.089C172.927 230.636 173.476 229.769 174.479 228.363C175.4 227.072 175.199 224.278 173.978 223.267Z" fill="black" />
        <path fill-rule="evenodd" clip-rule="evenodd" d="M173.978 223.267L156.313 220.611L149.455 216.665C148.55 216.145 147.932 215.215 147.877 214.173C147.876 214.154 147.876 214.134 147.875 214.115C147.821 212.814 148.616 211.631 149.816 211.125C151.992 210.208 155.439 208.989 156.909 206.414C159.021 202.713 156.909 201.945 156.909 201.945L142.157 207.842L131.715 214.949L129.614 226.8L144.184 231.558C144.184 231.558 160.42 232.474 164.9 231.972C169.38 231.469 169.38 229.382 169.38 229.382C170.211 229.122 171.893 227.645 171.893 226.269C174.067 224.229 173.978 223.267 173.978 223.267Z" fill="#FFC09D" />
        <path fill-rule="evenodd" clip-rule="evenodd" d="M151.383 228.367C151.389 228.347 151.648 228.398 152.111 228.506C152.573 228.619 153.244 228.767 154.076 228.933C155.739 229.267 158.062 229.614 160.647 229.717C163.234 229.816 165.577 229.651 167.26 229.447C168.103 229.346 168.784 229.251 169.253 229.175C169.722 229.103 169.985 229.073 169.989 229.093C169.993 229.114 169.739 229.182 169.274 229.29C168.81 229.402 168.132 229.53 167.289 229.658C165.603 229.917 163.243 230.117 160.636 230.018C158.03 229.913 155.692 229.53 154.032 229.141C153.201 228.947 152.534 228.767 152.081 228.619C151.626 228.476 151.378 228.387 151.383 228.367Z" fill="#FF9B6C" />
        <path fill-rule="evenodd" clip-rule="evenodd" d="M152.996 225.636C153.002 225.617 153.265 225.667 153.735 225.777C154.204 225.891 154.886 226.039 155.731 226.201C157.422 226.531 159.783 226.856 162.409 226.94C165.036 227.017 167.414 226.842 169.123 226.632C169.978 226.528 170.669 226.43 171.145 226.353C171.622 226.28 171.888 226.248 171.893 226.269C171.897 226.289 171.639 226.359 171.167 226.468C170.696 226.581 170.008 226.711 169.151 226.842C167.441 227.107 165.046 227.318 162.4 227.24C159.754 227.157 157.377 226.794 155.688 226.41C154.843 226.219 154.166 226.039 153.705 225.89C153.243 225.746 152.99 225.656 152.996 225.636Z" fill="#FF9B6C" />
        <path fill-rule="evenodd" clip-rule="evenodd" d="M257.183 160.296L225.796 166.495C223.627 166.924 221.522 165.513 221.093 163.344L212.513 119.9C212.084 117.731 213.495 115.626 215.664 115.197L235.569 111.266L254.115 124.104L260.334 155.593C260.763 157.762 259.352 159.867 257.183 160.296Z" fill="#ECECEC" />
        <path fill-rule="evenodd" clip-rule="evenodd" d="M235.569 111.266L237.985 123.492C238.383 125.51 240.341 126.822 242.358 126.424L254.115 124.104L235.569 111.266Z" fill="#F5F5F5" />
        <path fill-rule="evenodd" clip-rule="evenodd" d="M238.357 124.534C238.357 124.534 238.788 127.53 242.356 127.838C242.49 127.849 242.626 127.851 242.76 127.848C244.349 127.82 254.81 127.622 254.764 127.389C254.714 127.138 254.115 124.104 254.115 124.104L242.359 126.426C242.359 126.426 239.404 126.905 238.357 124.534Z" fill="#E1E1E1" />
        <path fill-rule="evenodd" clip-rule="evenodd" d="M257.183 160.296C257.183 160.296 257.239 160.277 257.352 160.246C257.466 160.219 257.633 160.172 257.846 160.085C258.268 159.918 258.895 159.59 259.467 158.904C260.018 158.229 260.514 157.14 260.329 155.852C260.1 154.579 259.787 153.115 259.465 151.474C258.157 144.899 256.284 135.49 254.021 124.122L254.061 124.182C248.448 120.302 242.188 115.974 235.508 111.356L235.591 111.373C231.9 112.103 228.058 112.863 224.105 113.645C222.128 114.036 220.124 114.432 218.097 114.833C217.59 114.933 217.082 115.033 216.572 115.134C216.064 115.242 215.543 115.31 215.072 115.488C214.121 115.84 213.32 116.588 212.899 117.523C212.606 118.171 212.49 118.901 212.585 119.604C212.695 120.308 212.858 121.029 212.991 121.738C213.272 123.161 213.551 124.573 213.829 125.976C214.382 128.781 214.927 131.545 215.463 134.261C216.533 139.693 217.566 144.933 218.55 149.924C219.041 152.42 219.52 154.853 219.986 157.218C220.218 158.4 220.447 159.566 220.673 160.712C220.786 161.286 220.898 161.855 221.008 162.42C221.129 162.984 221.195 163.554 221.408 164.061C221.825 165.088 222.693 165.885 223.696 166.245C224.197 166.427 224.73 166.502 225.253 166.47C225.77 166.434 226.292 166.298 226.807 166.206C228.868 165.801 230.846 165.413 232.733 165.043C240.282 163.568 246.391 162.374 250.619 161.547C252.727 161.14 254.366 160.824 255.484 160.608C256.037 160.504 256.459 160.425 256.75 160.37C257.035 160.317 257.183 160.296 257.183 160.296C257.183 160.296 257.038 160.333 256.754 160.393C256.465 160.452 256.043 160.54 255.493 160.653C254.377 160.879 252.741 161.209 250.636 161.635C246.411 162.477 240.307 163.696 232.765 165.201C230.878 165.576 228.901 165.969 226.841 166.378C226.324 166.472 225.814 166.608 225.263 166.65C224.717 166.684 224.158 166.606 223.634 166.416C222.583 166.042 221.672 165.21 221.233 164.133C221.007 163.592 220.941 163.014 220.82 162.456C220.708 161.892 220.595 161.324 220.482 160.751C220.254 159.604 220.023 158.439 219.789 157.257C219.32 154.893 218.838 152.46 218.344 149.965C217.356 144.974 216.319 139.735 215.244 134.304C214.706 131.588 214.16 128.825 213.606 126.02C213.329 124.618 213.049 123.205 212.769 121.782C212.634 121.066 212.474 120.368 212.359 119.632C212.259 118.889 212.381 118.114 212.692 117.429C213.136 116.44 213.984 115.647 214.993 115.275C215.502 115.083 216.023 115.019 216.528 114.91C217.038 114.81 217.546 114.71 218.053 114.609C220.08 114.209 222.085 113.814 224.061 113.423C228.015 112.644 231.858 111.886 235.548 111.159L235.594 111.149L235.632 111.176C242.307 115.803 248.561 120.138 254.169 124.026L254.201 124.048L254.208 124.085C256.438 135.46 258.283 144.875 259.572 151.452C259.887 153.098 260.19 154.557 260.413 155.84C260.592 157.158 260.078 158.262 259.511 158.94C258.924 159.631 258.286 159.953 257.857 160.112C257.641 160.195 257.471 160.238 257.356 160.26C257.241 160.287 257.183 160.296 257.183 160.296Z" fill="#1A2E35" />
        <path fill-rule="evenodd" clip-rule="evenodd" d="M254.115 124.104C254.116 124.112 254.014 124.14 253.818 124.186C253.598 124.235 253.312 124.299 252.956 124.378C252.179 124.54 251.1 124.765 249.778 125.042C248.427 125.316 246.83 125.639 245.06 125.998C244.169 126.174 243.236 126.358 242.268 126.55C241.268 126.727 240.157 126.472 239.303 125.812C238.875 125.485 238.522 125.071 238.27 124.611C238.01 124.156 237.885 123.63 237.804 123.152C237.615 122.185 237.433 121.251 237.259 120.361C236.918 118.588 236.61 116.987 236.35 115.633C236.103 114.305 235.902 113.222 235.757 112.442C235.695 112.082 235.645 111.794 235.607 111.572C235.575 111.373 235.562 111.267 235.569 111.266C235.577 111.264 235.605 111.367 235.652 111.563C235.701 111.783 235.764 112.068 235.844 112.425C236.006 113.201 236.232 114.28 236.508 115.602C236.783 116.953 237.106 118.551 237.465 120.32C237.643 121.21 237.829 122.143 238.023 123.109C238.109 123.6 238.222 124.066 238.469 124.502C238.706 124.935 239.039 125.323 239.442 125.631C240.246 126.252 241.288 126.494 242.231 126.33C243.197 126.143 244.13 125.963 245.019 125.792C246.793 125.451 248.393 125.144 249.747 124.884C251.075 124.637 252.159 124.435 252.939 124.291C253.298 124.229 253.587 124.179 253.809 124.141C254.008 124.109 254.113 124.096 254.115 124.104Z" fill="#1A2E35" />
        <path fill-rule="evenodd" clip-rule="evenodd" d="M237.132 122.293C237.144 122.355 233.446 123.137 228.874 124.04C224.301 124.944 220.584 125.626 220.571 125.564C220.56 125.502 224.256 124.72 228.83 123.816C233.402 122.914 237.119 122.231 237.132 122.293Z" fill="#1A2E35" />
        <path fill-rule="evenodd" clip-rule="evenodd" d="M246.193 126.841C246.205 126.902 240.749 128.032 234.007 129.364C227.263 130.696 221.789 131.725 221.776 131.663C221.764 131.602 227.22 130.472 233.963 129.14C240.704 127.809 246.181 126.779 246.193 126.841Z" fill="#1A2E35" />
        <path fill-rule="evenodd" clip-rule="evenodd" d="M247.398 132.94C247.41 133.002 241.954 134.131 235.212 135.463C228.468 136.795 222.993 137.824 222.981 137.763C222.969 137.701 228.424 136.571 235.168 135.24C241.909 133.908 247.386 132.878 247.398 132.94Z" fill="#1A2E35" />
        <path fill-rule="evenodd" clip-rule="evenodd" d="M224.186 143.862C224.174 143.8 229.63 142.67 236.371 141.338C243.115 140.007 248.59 138.977 248.602 139.039C248.614 139.101 243.159 140.23 236.416 141.563C229.674 142.894 224.198 143.924 224.186 143.862Z" fill="#1A2E35" />
        <path fill-rule="evenodd" clip-rule="evenodd" d="M249.807 145.138C249.819 145.201 244.363 146.33 237.621 147.661C230.878 148.994 225.402 150.023 225.39 149.961C225.378 149.9 230.833 148.77 237.577 147.438C244.319 146.107 249.795 145.077 249.807 145.138Z" fill="#1A2E35" />
        <path fill-rule="evenodd" clip-rule="evenodd" d="M251.012 151.238C251.024 151.3 245.568 152.429 238.826 153.761C232.082 155.093 226.607 156.122 226.595 156.06C226.583 155.999 232.038 154.869 238.782 153.537C245.523 152.206 251 151.176 251.012 151.238Z" fill="#1A2E35" />
        <path fill-rule="evenodd" clip-rule="evenodd" d="M238.004 155.286L214.97 159.835C213.969 160.033 212.998 159.382 212.8 158.38L211.15 150.027C210.952 149.026 211.604 148.055 212.605 147.856L235.639 143.307C236.64 143.109 237.611 143.761 237.809 144.761L239.459 153.115C239.656 154.116 239.006 155.088 238.004 155.286Z" fill="#FC5F4F" />
        <path fill-rule="evenodd" clip-rule="evenodd" d="M220.824 154.092C221.723 153.914 222.205 153.261 222.034 152.394C221.863 151.528 221.168 151.108 220.27 151.286L219.313 151.475L219.867 154.281L220.824 154.092ZM218.095 150.821L220.151 150.415C221.633 150.123 222.824 150.815 223.094 152.185C223.365 153.556 222.526 154.649 221.046 154.942L218.99 155.348L218.095 150.821Z" fill="white" />
        <path fill-rule="evenodd" clip-rule="evenodd" d="M227.49 151.317C227.32 150.457 226.596 149.989 225.788 150.148C224.98 150.308 224.488 151.016 224.658 151.876C224.828 152.736 225.552 153.205 226.36 153.045C227.169 152.886 227.66 152.177 227.49 151.317ZM223.597 152.086C223.332 150.742 224.183 149.539 225.612 149.256C227.034 148.975 228.283 149.756 228.551 151.107C228.817 152.459 227.959 153.657 226.536 153.937C225.108 154.22 223.863 153.431 223.597 152.086Z" fill="white" />
        <path fill-rule="evenodd" clip-rule="evenodd" d="M229.054 151.008C228.785 149.644 229.639 148.461 231.049 148.182C231.831 148.028 232.54 148.183 233.069 148.616L232.519 149.37C232.146 149.081 231.729 148.975 231.276 149.065C230.43 149.231 229.946 149.945 230.114 150.798C230.283 151.652 231.002 152.128 231.849 151.961C232.301 151.872 232.647 151.616 232.881 151.2L233.676 151.688C233.353 152.296 232.756 152.709 231.967 152.865C230.564 153.142 229.323 152.372 229.054 151.008Z" fill="white" />
        <path fill-rule="evenodd" clip-rule="evenodd" d="M252.246 127.967C252.246 127.967 254.564 125.032 256.349 126.674C258.134 128.315 257.619 129.159 255.921 131.753C255.921 131.753 259.711 131.554 258.496 135.446C258.496 135.446 262.272 135.029 261.909 138.214C261.909 138.214 264.76 141.004 263.277 142.802C261.794 144.6 256.417 147.847 255.058 147.288C253.7 146.73 253.69 144.807 253.69 144.807C253.69 144.807 252.074 144.078 251.628 143.228C251.181 142.376 251.947 141.183 251.947 141.183C251.947 141.183 250.585 139.792 250.248 139.403C249.911 139.014 250.433 137.209 250.433 137.209L252.607 135.099C252.607 135.099 249.613 136.4 248.989 135.904C248.365 135.408 247.661 134.979 248.329 134.073C248.997 133.168 251.373 131.142 251.373 131.142L252.246 127.967Z" fill="#FFC09D" />
        <path fill-rule="evenodd" clip-rule="evenodd" d="M253.992 145.029C253.959 144.99 254.361 144.565 254.973 143.837C255.589 143.125 256.461 142.07 257.74 141.303C258.991 140.538 260.14 139.921 260.848 139.304C261.571 138.707 261.855 138.182 261.909 138.214C261.946 138.224 261.731 138.818 261.019 139.494C260.326 140.186 259.159 140.858 257.932 141.609C256.7 142.345 255.834 143.332 255.161 144.009C254.497 144.697 254.024 145.066 253.992 145.029Z" fill="#FF9B6C" />
        <path fill-rule="evenodd" clip-rule="evenodd" d="M251.895 141.744C251.824 141.674 253.216 140.171 255.003 138.388C255.899 137.511 256.668 136.657 257.33 136.136C257.981 135.6 258.478 135.406 258.496 135.446C258.522 135.495 258.087 135.759 257.499 136.327C256.9 136.88 256.164 137.756 255.257 138.644C253.471 140.427 251.965 141.815 251.895 141.744Z" fill="#FF9B6C" />
        <path fill-rule="evenodd" clip-rule="evenodd" d="M252.607 135.099C252.536 135.009 253.396 134.326 254.35 133.418C255.32 132.515 255.793 131.551 255.885 131.586C255.988 131.608 255.62 132.728 254.602 133.676C253.61 134.62 252.658 135.166 252.607 135.099Z" fill="#FF9B6C" />
        <path fill-rule="evenodd" clip-rule="evenodd" d="M252.247 127.957C252.253 127.961 252.24 128.034 252.208 128.174C252.169 128.336 252.12 128.54 252.058 128.792C251.912 129.361 251.708 130.15 251.449 131.153L251.443 131.175L251.424 131.192C250.987 131.577 250.496 132.018 249.964 132.518C249.448 133.024 248.828 133.567 248.348 134.245C248.243 134.417 248.164 134.608 248.184 134.794C248.203 134.979 248.318 135.153 248.476 135.305C248.63 135.46 248.819 135.598 249.009 135.746C249.165 135.881 249.373 135.879 249.612 135.866C250.558 135.755 251.552 135.368 252.55 134.955L253.251 134.665L252.71 135.194C252.025 135.862 251.297 136.574 250.542 137.311L250.576 137.265C250.301 137.937 250.126 138.789 250.464 139.468C250.84 140.143 251.51 140.712 252.18 141.216L252.327 141.326L252.208 141.466C251.735 142.025 251.399 142.909 252.018 143.455C252.57 144.026 253.325 144.467 254.072 144.859L253.817 145.001L253.821 144.959C253.821 144.959 253.822 144.939 253.822 144.946L253.822 144.949C253.867 145.002 253.721 144.824 253.925 145.104C254.414 144.873 254.067 145.009 254.173 144.971V144.971V144.973L254.17 145.056L254.171 145.233C254.176 145.352 254.187 145.472 254.205 145.59C254.238 145.827 254.3 146.059 254.392 146.276C254.486 146.492 254.612 146.692 254.777 146.853C254.942 147.01 255.145 147.153 255.339 147.175C255.783 147.225 256.297 147.063 256.771 146.893C257.253 146.715 257.727 146.493 258.194 146.253C259.079 145.795 259.923 145.276 260.725 144.722C261.521 144.164 262.297 143.578 262.94 142.905C263.269 142.572 263.483 142.203 263.515 141.766C263.554 141.337 263.447 140.898 263.282 140.49C262.942 139.671 262.382 138.943 261.791 138.325L261.738 138.269L261.742 138.185C261.763 137.757 261.781 137.316 261.613 136.94C261.466 136.561 261.194 136.248 260.851 136.038C260.156 135.62 259.285 135.542 258.514 135.591L258.296 135.605L258.348 135.39C258.405 135.153 258.473 134.92 258.522 134.687C258.536 134.453 258.604 134.218 258.576 133.991C258.591 133.53 258.442 133.094 258.185 132.759C257.65 132.08 256.713 131.874 255.93 131.876L255.676 131.876L255.812 131.67C256.264 130.982 256.704 130.331 257.032 129.68C257.19 129.353 257.312 129.022 257.342 128.694C257.375 128.367 257.294 128.052 257.148 127.776C256.837 127.242 256.391 126.775 255.956 126.482C255.494 126.199 254.965 126.21 254.539 126.337C253.676 126.61 253.134 127.129 252.777 127.44C252.598 127.603 252.471 127.738 252.383 127.826C252.296 127.916 252.253 127.96 252.247 127.957C252.24 127.954 252.277 127.898 252.354 127.8C252.433 127.703 252.551 127.559 252.724 127.385C252.894 127.21 253.116 127.002 253.403 126.786C253.688 126.57 254.043 126.34 254.497 126.196C254.94 126.05 255.529 126.022 256.048 126.326C256.167 126.413 256.287 126.501 256.411 126.592C256.518 126.694 256.627 126.799 256.739 126.906C256.947 127.134 257.173 127.37 257.334 127.676C257.5 127.975 257.599 128.34 257.567 128.712C257.538 129.083 257.408 129.441 257.248 129.784C256.914 130.464 256.479 131.122 256.033 131.816L255.916 131.61C256.359 131.599 256.796 131.658 257.236 131.799C257.67 131.94 258.106 132.187 258.414 132.58C258.719 132.968 258.889 133.481 258.877 133.984C258.907 134.238 258.839 134.484 258.823 134.739C258.774 134.987 258.705 135.232 258.645 135.483L258.48 135.282C259.319 135.226 260.215 135.291 261.021 135.76C261.415 135.997 261.749 136.372 261.923 136.818C262.12 137.266 262.101 137.753 262.078 138.223L262.028 138.083C262.657 138.739 263.229 139.471 263.603 140.357C263.783 140.799 263.91 141.289 263.865 141.799C263.845 142.056 263.762 142.302 263.654 142.54C263.517 142.761 263.372 142.978 263.199 143.148C262.522 143.858 261.739 144.448 260.93 145.017C260.116 145.581 259.261 146.107 258.359 146.574C257.883 146.82 257.398 147.046 256.896 147.231C256.391 147.405 255.88 147.59 255.286 147.531C254.657 147.397 254.288 146.911 254.064 146.417C253.958 146.165 253.89 145.904 253.852 145.641C253.833 145.51 253.821 145.378 253.816 145.247L253.815 145.048L253.82 144.943L253.823 144.922L253.823 144.916C253.929 144.877 253.583 145.012 254.072 144.781C254.278 145.058 254.131 144.881 254.176 144.935V144.95L254.174 144.985L254.17 145.036L254.146 145.3L253.914 145.178C253.134 144.761 252.382 144.331 251.762 143.689C251.614 143.523 251.469 143.334 251.393 143.099C251.317 142.867 251.32 142.622 251.363 142.399C251.458 141.95 251.677 141.577 251.954 141.241L251.983 141.492C251.281 140.953 250.61 140.398 250.173 139.617C249.966 139.208 249.927 138.749 249.972 138.332C250.017 137.908 250.126 137.515 250.291 137.133L250.302 137.108L250.324 137.086C251.084 136.354 251.817 135.648 252.507 134.984L252.666 135.223C251.639 135.636 250.656 136.017 249.632 136.129C249.389 136.146 249.069 136.139 248.85 135.947C248.665 135.799 248.472 135.656 248.299 135.48C248.128 135.311 247.97 135.085 247.945 134.817C247.922 134.549 248.031 134.313 248.152 134.122C248.685 133.391 249.299 132.882 249.831 132.375C250.374 131.882 250.874 131.449 251.323 131.073L251.298 131.111C251.59 130.111 251.819 129.325 251.984 128.76C252.06 128.513 252.122 128.314 252.171 128.156C252.215 128.021 252.24 127.954 252.247 127.957Z" fill="#FF9B6C" />
        <path fill-rule="evenodd" clip-rule="evenodd" d="M321.673 231.16C321.673 231.223 256.252 231.274 175.57 231.274C94.8598 231.274 29.453 231.223 29.453 231.16C29.453 231.097 94.8598 231.046 175.57 231.046C256.252 231.046 321.673 231.097 321.673 231.16Z" fill="#1A2E35" />
        <path fill-rule="evenodd" clip-rule="evenodd" d="M164.18 59.0919C164.18 59.0919 168.38 53.5177 176.024 53.5138C181.206 53.5112 193.822 60.8831 197.629 61.6061C201.435 62.3291 206.919 62.0814 208.595 64.3046C209.959 66.1142 209.938 67.1531 207.951 69.0621C206.848 70.122 204.639 70.6713 204.639 70.6713C204.639 70.6713 209.959 71.5461 209.344 76.2752C208.974 79.1325 203.27 79.2494 203.27 79.2494C203.27 79.2494 208.753 79.9382 206.925 84.4191C205.606 87.6502 201.342 87.3929 201.342 87.3929C201.342 87.3929 189.967 87.7421 182.759 82.9701C177.084 79.213 167.09 69.3129 167.09 69.3129C159.621 68.249 156.368 93.2086 155.464 96.3727L153.014 97.9666C152.114 97.55 151.264 97.0366 150.432 96.4966C150.076 96.2651 149.551 96.02 148.813 95.8769C147.702 95.6616 147.286 95.8458 146.136 94.8042C142.163 91.2047 142.949 73.8848 146.85 67.2061C150.072 61.691 153.36 58.6534 156.026 57.4179C160.103 55.5282 164.18 59.0919 164.18 59.0919Z" fill="#333333" />
        <path d="M204.734 64.0294C203.613 63.6333 197.232 62.7265 192.62 59.0206C188.009 55.3143 177.832 49.3292 170.913 52.8434C163.993 56.3576 164.18 59.092 164.18 59.092C164.18 59.092 158.95 54.1401 154.448 55.9292C149.946 57.7178 144.745 67.3318 144.023 71.6329C142.663 79.7435 142.649 86.5247 144.609 90.691" stroke="#3B424C" />
        <path d="M197.81 87.2848C191.268 86.3482 186.504 81.8616 182.059 77.5202C176.49 72.0804 167.09 69.3133 167.09 69.3133" stroke="#676F7A" stroke-linecap="round" />
        <path d="M174.086 56.1178C174.086 56.1178 176.553 56.1007 179.605 57.0666C182.657 58.0324 184.799 59.3935 184.799 59.3935" stroke="white" stroke-width="3" stroke-linecap="round" />
        <path fill-rule="evenodd" clip-rule="evenodd" d="M155.464 96.3725C155.277 96.2753 147.872 93.5112 147.555 101.249C147.238 108.988 155.073 107.71 155.095 107.488C155.118 107.267 155.464 96.3725 155.464 96.3725Z" fill="#FFC09D" />
        <path fill-rule="evenodd" clip-rule="evenodd" d="M323.718 142.564H287.483L280.863 148.64V118.438C280.863 117.501 281.622 116.743 282.558 116.743H323.718C324.654 116.743 325.413 117.501 325.413 118.438V140.869C325.413 141.806 324.654 142.564 323.718 142.564Z" fill="#F2F2F2" />
        <path fill-rule="evenodd" clip-rule="evenodd" d="M323.718 142.564H287.483L280.863 148.64V118.438C280.863 117.501 281.622 116.743 282.558 116.743H323.718C324.654 116.743 325.413 117.501 325.413 118.438V140.869C325.413 141.806 324.654 142.564 323.718 142.564Z" stroke="black" stroke-width="0.5" />
        <path d="M287.304 123.92H305.017" stroke="black" stroke-width="0.5" />
        <path d="M287.304 129.587H295.355" stroke="black" stroke-width="0.5" />
        <path d="M287.304 134.983H301.439" stroke="black" stroke-width="0.5" />
        <path fill-rule="evenodd" clip-rule="evenodd" d="M315.984 125.215C317.71 126.94 317.71 129.738 315.984 131.463C314.258 133.189 311.46 133.189 309.735 131.463C308.009 129.738 308.009 126.94 309.735 125.215C311.461 123.489 314.259 123.489 315.984 125.215Z" stroke="black" stroke-width="0.5" />
        <path fill-rule="evenodd" clip-rule="evenodd" d="M315.287 125.912C316.627 127.252 316.627 129.425 315.287 130.766C313.946 132.106 311.773 132.106 310.432 130.766C309.092 129.425 309.092 127.252 310.432 125.912C311.773 124.572 313.946 124.572 315.287 125.912Z" stroke="black" stroke-width="0.5" />
        <path d="M315.387 131.959L319.706 136.277C320.013 136.584 320.511 136.584 320.819 136.277C321.126 135.97 321.126 135.472 320.819 135.165L316.5 130.846" stroke="black" stroke-width="0.5" />
        <path fill-rule="evenodd" clip-rule="evenodd" d="M132.009 92.5069H47.9003C45.0114 92.5069 42.6486 90.1436 42.6486 87.2552V37.2712C42.6486 34.3828 45.0114 32.0196 47.9003 32.0196H132.009C134.898 32.0196 137.261 34.3828 137.261 37.2712V87.2552C137.261 90.1436 134.898 92.5069 132.009 92.5069Z" fill="#F2F2F2" />
        <path fill-rule="evenodd" clip-rule="evenodd" d="M132.009 92.5069H47.9003C45.0114 92.5069 42.6486 90.1436 42.6486 87.2552V37.2712C42.6486 34.3828 45.0114 32.0196 47.9003 32.0196H132.009C134.898 32.0196 137.261 34.3828 137.261 37.2712V87.2552C137.261 90.1436 134.898 92.5069 132.009 92.5069Z" stroke="black" stroke-width="0.5" />
        <path fill-rule="evenodd" clip-rule="evenodd" d="M50.5532 37.961C50.5532 38.8214 49.8561 39.5186 48.9957 39.5186C48.1357 39.5186 47.4382 38.8214 47.4382 37.961C47.4382 37.1006 48.1357 36.4031 48.9957 36.4031C49.8561 36.4031 50.5532 37.1006 50.5532 37.961Z" fill="#F2F2F2" />
        <path fill-rule="evenodd" clip-rule="evenodd" d="M50.5532 37.961C50.5532 38.8214 49.8561 39.5186 48.9957 39.5186C48.1357 39.5186 47.4382 38.8214 47.4382 37.961C47.4382 37.1006 48.1357 36.4031 48.9957 36.4031C49.8561 36.4031 50.5532 37.1006 50.5532 37.961Z" stroke="black" stroke-width="0.5" />
        <path fill-rule="evenodd" clip-rule="evenodd" d="M55.5737 37.961C55.5737 38.8214 54.8761 39.5186 54.0157 39.5186C53.1557 39.5186 52.4586 38.8214 52.4586 37.961C52.4586 37.1006 53.1557 36.4031 54.0157 36.4031C54.8761 36.4031 55.5737 37.1006 55.5737 37.961Z" fill="#F2F2F2" />
        <path fill-rule="evenodd" clip-rule="evenodd" d="M55.5737 37.961C55.5737 38.8214 54.8761 39.5186 54.0157 39.5186C53.1557 39.5186 52.4586 38.8214 52.4586 37.961C52.4586 37.1006 53.1557 36.4031 54.0157 36.4031C54.8761 36.4031 55.5737 37.1006 55.5737 37.961Z" stroke="black" stroke-width="0.5" />
        <path fill-rule="evenodd" clip-rule="evenodd" d="M60.3547 37.961C60.3547 38.8214 59.6571 39.5186 58.7968 39.5186C57.9368 39.5186 57.2397 38.8214 57.2397 37.961C57.2397 37.1006 57.9368 36.4031 58.7968 36.4031C59.6571 36.4031 60.3547 37.1006 60.3547 37.961Z" fill="#F2F2F2" />
        <path fill-rule="evenodd" clip-rule="evenodd" d="M60.3547 37.961C60.3547 38.8214 59.6571 39.5186 58.7968 39.5186C57.9368 39.5186 57.2397 38.8214 57.2397 37.961C57.2397 37.1006 57.9368 36.4031 58.7968 36.4031C59.6571 36.4031 60.3547 37.1006 60.3547 37.961Z" stroke="black" stroke-width="0.5" />
        <path d="M42.6485 42.5618H137.261" stroke="black" stroke-width="0.5" />
        <path fill-rule="evenodd" clip-rule="evenodd" d="M263.121 80.4463H233.755L228.39 85.3701V60.8936C228.39 60.1352 229.005 59.5199 229.764 59.5199H263.121C263.879 59.5199 264.495 60.1352 264.495 60.8936V79.0721C264.495 79.8314 263.879 80.4463 263.121 80.4463Z" fill="#F2F2F2" />
        <path fill-rule="evenodd" clip-rule="evenodd" d="M263.121 80.4463H233.755L228.39 85.3701V60.8936C228.39 60.1352 229.005 59.5199 229.764 59.5199H263.121C263.879 59.5199 264.495 60.1352 264.495 60.8936V79.0721C264.495 79.8314 263.879 80.4463 263.121 80.4463Z" stroke="black" stroke-width="0.5" />
        <path fill-rule="evenodd" clip-rule="evenodd" d="M239.32 70.2678C239.32 71.47 238.345 72.4451 237.142 72.4451C235.94 72.4451 234.965 71.47 234.965 70.2678C234.965 69.0652 235.94 68.0901 237.142 68.0901C238.345 68.0901 239.32 69.0652 239.32 70.2678Z" fill="#F2F2F2" />
        <path fill-rule="evenodd" clip-rule="evenodd" d="M239.32 70.2678C239.32 71.47 238.345 72.4451 237.142 72.4451C235.94 72.4451 234.965 71.47 234.965 70.2678C234.965 69.0652 235.94 68.0901 237.142 68.0901C238.345 68.0901 239.32 69.0652 239.32 70.2678Z" stroke="black" stroke-width="0.5" />
        <path fill-rule="evenodd" clip-rule="evenodd" d="M248.711 70.2678C248.711 71.47 247.736 72.4451 246.534 72.4451C245.331 72.4451 244.356 71.47 244.356 70.2678C244.356 69.0652 245.331 68.0901 246.534 68.0901C247.736 68.0901 248.711 69.0652 248.711 70.2678Z" fill="#F2F2F2" />
        <path fill-rule="evenodd" clip-rule="evenodd" d="M248.711 70.2678C248.711 71.47 247.736 72.4451 246.534 72.4451C245.331 72.4451 244.356 71.47 244.356 70.2678C244.356 69.0652 245.331 68.0901 246.534 68.0901C247.736 68.0901 248.711 69.0652 248.711 70.2678Z" stroke="black" stroke-width="0.5" />
        <path fill-rule="evenodd" clip-rule="evenodd" d="M257.818 70.2678C257.818 71.47 256.843 72.4451 255.64 72.4451C254.438 72.4451 253.463 71.47 253.463 70.2678C253.463 69.0652 254.438 68.0901 255.64 68.0901C256.843 68.0901 257.818 69.0652 257.818 70.2678Z" fill="#F2F2F2" />
        <path fill-rule="evenodd" clip-rule="evenodd" d="M257.818 70.2678C257.818 71.47 256.843 72.4451 255.64 72.4451C254.438 72.4451 253.463 71.47 253.463 70.2678C253.463 69.0652 254.438 68.0901 255.64 68.0901C256.843 68.0901 257.818 69.0652 257.818 70.2678Z" stroke="black" stroke-width="0.5" />
        <path fill-rule="evenodd" clip-rule="evenodd" d="M329.77 46.9214C329.77 60.8746 318.459 72.1857 304.506 72.1857C290.554 72.1857 279.242 60.8746 279.242 46.9214C279.242 32.9688 290.554 21.6572 304.506 21.6572C318.459 21.6572 329.77 32.9683 329.77 46.9214Z" fill="#F2F2F2" />
        <path fill-rule="evenodd" clip-rule="evenodd" d="M329.77 46.9214C329.77 60.8746 318.459 72.1857 304.506 72.1857C290.554 72.1857 279.242 60.8746 279.242 46.9214C279.242 32.9688 290.554 21.6572 304.506 21.6572C318.459 21.6572 329.77 32.9683 329.77 46.9214Z" stroke="black" stroke-width="0.5" />
        <path fill-rule="evenodd" clip-rule="evenodd" d="M311.591 42.4028C311.591 46.1888 308.522 49.2579 304.736 49.2579C300.95 49.2579 297.881 46.1888 297.881 42.4028C297.881 38.6172 300.95 35.5481 304.736 35.5481C308.522 35.5481 311.591 38.6172 311.591 42.4028Z" stroke="black" stroke-width="0.5" />
        <path d="M295.865 58.1286C295.865 53.2297 299.836 49.2577 304.736 49.2577C309.635 49.2577 313.607 53.2297 313.607 58.1286" stroke="black" stroke-width="0.5" />
        <path d="M301.548 36.3344C300.429 34.0701 298.097 32.5121 295.398 32.5121C291.613 32.5121 288.543 35.5817 288.543 39.3668C288.543 43.1541 291.613 46.2219 295.398 46.2219C296.55 46.2219 297.636 45.9375 298.588 45.4346" stroke="black" stroke-width="0.5" />
        <path d="M286.528 55.0942C286.528 50.1949 290.499 46.222 295.398 46.222" stroke="black" stroke-width="0.5" />
        <path d="M310.881 45.4346C311.833 45.9374 312.919 46.2219 314.071 46.2219C317.856 46.2219 320.926 43.1541 320.926 39.3668C320.926 35.5817 317.856 32.5121 314.071 32.5121C311.372 32.5121 309.04 34.0701 307.921 36.3344" stroke="black" stroke-width="0.5" />
        <path d="M314.071 46.2218C318.97 46.2218 322.941 50.1947 322.941 55.094" stroke="black" stroke-width="0.5" />
        <path fill-rule="evenodd" clip-rule="evenodd" d="M95.9754 128.339C95.9754 138.216 87.968 146.223 78.091 146.223C68.2136 146.223 60.2066 138.216 60.2066 128.339C60.2066 118.462 68.2136 110.454 78.091 110.454C87.968 110.454 95.9754 118.462 95.9754 128.339Z" fill="#F2F2F2" />
        <path fill-rule="evenodd" clip-rule="evenodd" d="M95.9754 128.339C95.9754 138.216 87.968 146.223 78.091 146.223C68.2136 146.223 60.2066 138.216 60.2066 128.339C60.2066 118.462 68.2136 110.454 78.091 110.454C87.968 110.454 95.9754 118.462 95.9754 128.339Z" stroke="black" stroke-width="0.5" />
        <path fill-rule="evenodd" clip-rule="evenodd" d="M83.6644 119.611C83.6644 120.899 82.6197 121.944 81.3313 121.944C80.0434 121.944 78.9987 120.899 78.9987 119.611C78.9987 118.323 80.0434 117.278 81.3313 117.278C82.6197 117.278 83.6644 118.323 83.6644 119.611Z" fill="#F2F2F2" />
        <path fill-rule="evenodd" clip-rule="evenodd" d="M83.6644 119.611C83.6644 120.899 82.6197 121.944 81.3313 121.944C80.0434 121.944 78.9987 120.899 78.9987 119.611C78.9987 118.323 80.0434 117.278 81.3313 117.278C82.6197 117.278 83.6644 118.323 83.6644 119.611Z" stroke="black" stroke-width="0.5" />
        <path fill-rule="evenodd" clip-rule="evenodd" d="M72.5333 128.508C72.5333 129.796 71.4887 130.841 70.2003 130.841C68.9119 130.841 67.8677 129.796 67.8677 128.508C67.8677 127.22 68.9119 126.175 70.2003 126.175C71.4887 126.175 72.5333 127.22 72.5333 128.508Z" fill="#F2F2F2" />
        <path fill-rule="evenodd" clip-rule="evenodd" d="M72.5333 128.508C72.5333 129.796 71.4887 130.841 70.2003 130.841C68.9119 130.841 67.8677 129.796 67.8677 128.508C67.8677 127.22 68.9119 126.175 70.2003 126.175C71.4887 126.175 72.5333 127.22 72.5333 128.508Z" stroke="black" stroke-width="0.5" />
        <path fill-rule="evenodd" clip-rule="evenodd" d="M83.2601 136.949C83.2601 138.237 82.2154 139.282 80.927 139.282C79.6391 139.282 78.5945 138.237 78.5945 136.949C78.5945 135.66 79.6391 134.616 80.927 134.616C82.2154 134.616 83.2601 135.66 83.2601 136.949Z" fill="#F2F2F2" />
        <path fill-rule="evenodd" clip-rule="evenodd" d="M83.2601 136.949C83.2601 138.237 82.2154 139.282 80.927 139.282C79.6391 139.282 78.5945 138.237 78.5945 136.949C78.5945 135.66 79.6391 134.616 80.927 134.616C82.2154 134.616 83.2601 135.66 83.2601 136.949Z" stroke="black" stroke-width="0.5" />
        <path d="M79.5769 121.077L72.0247 127.056" stroke="black" stroke-width="0.5" />
        <path d="M72.0247 129.959L78.9989 135.399" stroke="black" stroke-width="0.5" />
        <path fill-rule="evenodd" clip-rule="evenodd" d="M267.96 203.129H291.362C295.212 203.129 298.333 206.25 298.333 210.1C298.333 213.95 295.212 217.07 291.362 217.07H267.96V215.087H290.714C293.481 215.087 295.724 212.844 295.724 210.077C295.724 207.311 293.481 205.068 290.714 205.068H267.96V203.129Z" fill="#F2F2F2" />
        <path fill-rule="evenodd" clip-rule="evenodd" d="M267.96 203.129H291.362C295.212 203.129 298.333 206.25 298.333 210.1C298.333 213.95 295.212 217.07 291.362 217.07H267.96V215.087H290.714C293.481 215.087 295.724 212.844 295.724 210.077C295.724 207.311 293.481 205.068 290.714 205.068H267.96V203.129Z" stroke="black" stroke-width="0.5" />
        <path d="M269.913 205.068V215.088" stroke="black" stroke-width="0.5" />
        <path fill-rule="evenodd" clip-rule="evenodd" d="M262.999 217.07H293.489C297.339 217.07 300.46 220.191 300.46 224.042C300.46 227.891 297.339 231.012 293.489 231.012H262.999V229.029H292.84C295.607 229.029 297.851 226.786 297.851 224.019C297.851 221.253 295.607 219.009 292.84 219.009H262.999V217.07Z" fill="#F2F2F2" />
        <path fill-rule="evenodd" clip-rule="evenodd" d="M262.999 217.07H293.489C297.339 217.07 300.46 220.191 300.46 224.042C300.46 227.891 297.339 231.012 293.489 231.012H262.999V229.029H292.84C295.607 229.029 297.851 226.786 297.851 224.019C297.851 221.253 295.607 219.009 292.84 219.009H262.999V217.07Z" stroke="black" stroke-width="0.5" />
        <path d="M264.951 219.009V229.029" stroke="black" stroke-width="0.5" />
        <path fill-rule="evenodd" clip-rule="evenodd" d="M272.101 180.036H290.419L289.356 203.129H273.165L272.101 180.036Z" fill="#F2F2F2" />
        <path fill-rule="evenodd" clip-rule="evenodd" d="M272.101 180.036H290.419L289.356 203.129H273.165L272.101 180.036Z" stroke="black" stroke-width="0.5" />
        <path d="M290.134 186.22H296.995V187.425C296.995 191.428 293.749 194.674 289.745 194.674" stroke="black" stroke-width="0.5" />
    </g>
</svg>
