<svg width="46" height="40" viewBox="0 0 46 40" fill="none" xmlns="http://www.w3.org/2000/svg">
    <path d="M12.5424 2.52962C17.1897 2.52962 21.2468 5.05724 23.4137 8.81274L15.5932 8.81356L15.594 27.2405C14.6171 27.4847 13.5949 27.6144 12.5424 27.6144C5.61541 27.6144 0 21.999 0 15.072C0 8.14503 5.61541 2.52962 12.5424 2.52962Z" fill="#D1F5FF" />
    <path d="M44.7458 9.49153H15.5932V15.9322H44.7458V9.49153Z" fill="#FF8484" />
    <path d="M15.3825 27.0202C8.02288 27.0202 2.03453 20.9406 2.03453 13.5101C2.03453 6.07954 8.02288 0 15.3825 0V1.35101C8.76593 1.35101 3.38554 6.80233 3.38554 13.5101C3.38554 20.2179 8.76593 25.6692 15.3825 25.6692V27.0202Z" fill="black" />
    <path d="M15.3825 27.0202C10.8938 27.0202 7.37439 21.0791 7.37439 13.5101C7.37439 5.94106 10.8938 0 15.3825 0C18.6553 0 21.5634 3.27957 22.7894 8.35261L21.4755 8.6701C20.4184 4.29283 17.9697 1.35101 15.3825 1.35101C11.7753 1.35101 8.7254 6.91717 8.7254 13.5101C8.7254 20.103 11.7652 25.6692 15.3825 25.6692V27.0202Z" fill="black" />
    <path d="M26.4811 8.88964C24.7627 4.57112 20.6981 1.6392 16.058 1.37127V6.50173H14.707V0H15.3825C20.8272 0.00363209 25.7202 3.32448 27.7341 8.38301L26.4811 8.88964ZM12.6163 18.7047H3.06468L2.89919 18.2623C1.74548 15.1957 1.74548 11.8144 2.89919 8.74778L3.06131 8.30533H12.6163V9.65634H4.01377C3.17848 12.1541 3.17848 14.8559 4.01377 17.3537H12.6163V18.7047Z" fill="black" />
    <path d="M45.9423 40H14.7205V8.31883H45.9423V40ZM16.0715 38.649H44.5913V9.66984H16.0715V38.649Z" fill="black" />
    <path d="M15.396 15.0401H45.2668V16.3911H15.396V15.0401ZM17.9123 11.6997H31.0711V13.0507H17.9123V11.6997ZM40.6227 11.6997H42.3351V13.0507H40.6227V11.6997ZM20.1414 28.8238H39.6027V30.1748H20.1414V28.8238ZM38.2517 20.9406V24.7302H21.4924V20.9406H38.2517ZM39.6027 19.5896H20.1414V26.0812H39.6027V19.5896ZM20.1414 32.7653H39.6027V34.1164H20.1414V32.7653Z" fill="black" />
</svg>