<svg width="41" height="43" viewBox="0 0 41 43" fill="none" xmlns="http://www.w3.org/2000/svg">
    <path d="M20.7722 0.696167C9.60598 0.696167 0.551697 10.3342 0.551697 22.2264C0.551697 31.7409 6.34404 39.8101 14.3819 42.6596C15.3913 42.8524 15.7113 42.2177 15.7113 41.6467C15.7113 41.1337 15.7219 39.7053 15.7113 37.9079C10.0878 39.2073 8.92194 35.0716 8.92194 35.0716C8.00227 32.5834 6.67991 31.9225 6.67991 31.9225C4.84232 30.5858 6.81531 30.6139 6.81531 30.6139C8.84281 30.7636 9.91371 32.8306 9.91371 32.8306C11.7179 36.1219 14.6457 35.1708 15.7975 34.6204C15.9839 33.2312 16.5044 32.2783 17.0829 31.7447C12.5918 31.198 7.87214 29.3539 7.87214 21.0994C7.87214 18.7498 8.65993 16.8289 9.95415 15.3218C9.74665 14.7807 9.05031 12.5884 10.1511 9.62467C10.1511 9.62467 11.8515 9.04616 15.7113 11.8339C17.3619 11.3546 19.0648 11.1103 20.7757 11.1075C22.4919 11.1168 24.2222 11.3546 25.84 11.8339C29.6998 9.04804 31.395 9.62467 31.395 9.62467C32.4975 12.5884 31.8029 14.7807 31.5954 15.3218C32.8897 16.8289 33.6757 18.7498 33.6757 21.0994C33.6757 29.3745 28.9472 31.1924 24.4421 31.7222C25.1665 32.3906 25.826 33.6824 25.826 35.6913V41.6523C25.826 42.229 26.153 42.8637 27.18 42.6558C35.2091 39.8045 40.9961 31.7372 40.9961 22.2264C40.9961 10.3342 31.9436 0.696167 20.7722 0.696167Z" fill="#535353" />
</svg>