<svg width="24" height="14" viewBox="0 0 24 14" fill="none" xmlns="http://www.w3.org/2000/svg">
    <path d="M23.1382 6.11426C23.4059 6.38198 23.4059 6.81601 23.1382 7.08373L17.3235 12.9003C17.0555 13.1659 16.6232 13.165 16.3565 12.8981C16.0897 12.6313 16.0888 12.199 16.3545 11.931L22.1692 6.11426C22.4369 5.8468 22.8706 5.8468 23.1382 6.11426ZM17.3235 0.297713L23.1382 6.11426C23.4059 6.38185 23.406 6.81579 23.1385 7.0835C22.8709 7.35121 22.4369 7.35131 22.1692 7.08373L16.3545 1.26741C16.0884 0.999541 16.089 0.566899 16.3559 0.29981C16.6228 0.0327199 17.0555 0.0317823 17.3235 0.297713ZM0.471842 5.9223H22.5117C22.6369 5.9223 22.7569 5.97202 22.8454 6.0605C22.9338 6.14899 22.9836 6.26901 22.9836 6.39415V6.81512C22.9836 7.07571 22.7723 7.28696 22.5117 7.28696H0.471842C0.211251 7.28696 0 7.07571 0 6.81512V6.39415C0 6.13355 0.211251 5.9223 0.471842 5.9223Z" fill="#444444" />
</svg>