<svg width="107" height="107" viewBox="0 0 107 107" fill="none" xmlns="http://www.w3.org/2000/svg">
<g opacity="0.3">
<path opacity="0.3" d="M46.967 77.111L11.8674 42.0114C10.2762 40.4202 9.01408 38.5312 8.15296 36.4523C7.29185 34.3735 6.84863 32.1453 6.84863 29.895C6.84863 27.6449 7.29184 25.4168 8.15296 23.3379C9.01408 21.2588 10.2762 19.37 11.8674 17.7788C13.4585 16.1876 15.3475 14.9255 17.4264 14.0644C19.5053 13.2033 21.7335 12.7601 23.9837 12.7601C26.2339 12.7601 28.4621 13.2033 30.541 14.0644C32.6199 14.9255 34.5088 16.1876 36.0999 17.7788L59.1155 40.7944C62.3148 44.0108 64.1081 48.3646 64.102 52.9012C64.0959 57.4378 62.2911 61.7868 59.0832 64.9947L46.967 77.111Z" fill="url(#paint0_linear_47_10)"/>
</g>
<path opacity="0.2" d="M40.8203 34.9251C41.635 34.113 42.2814 33.148 42.7224 32.0856C43.1635 31.0231 43.3905 29.8841 43.3905 28.7337C43.3905 27.5834 43.1635 26.4443 42.7224 25.3819C42.2814 24.3194 41.635 23.3545 40.8203 22.5422L59.0977 40.8196C62.3018 44.0318 64.1012 48.3837 64.1012 52.9207C64.1012 57.4578 62.3018 61.8096 59.0977 65.0219L35.9159 88.6606C32.703 91.8695 28.348 93.6718 23.8071 93.6718C19.2664 93.6718 14.9112 91.8695 11.6984 88.6606L11.5461 88.493C8.4047 85.2692 6.65934 80.9379 6.68784 76.4368C6.71635 71.9357 8.51642 67.6268 11.6984 64.4431L40.8203 34.9251Z" fill="url(#paint1_linear_47_10)"/>
<path d="M47.048 29.2188L95.5671 77.7378C98.7731 80.9438 100.578 85.2897 100.586 89.8237C100.594 94.3577 98.8047 98.71 95.6101 101.927C94.0216 103.53 92.1321 104.803 90.0501 105.674C87.9682 106.544 85.7347 106.995 83.4782 107C81.2215 107.005 78.9861 106.564 76.9003 105.703C74.8146 104.842 72.9194 103.577 71.3237 101.981L34.921 65.5784C33.3252 63.9828 32.0605 62.0876 31.1993 60.0019C30.338 57.9161 29.8972 55.6806 29.9022 53.424C29.9072 51.1675 30.3579 48.934 31.2284 46.8521C32.0988 44.7701 33.372 42.8805 34.9748 41.2921L47.048 29.2188Z" fill="url(#paint2_linear_47_10)"/>
<path d="M53.2032 71.4189C52.3882 72.2324 51.7415 73.1987 51.3002 74.2625C50.859 75.3262 50.6319 76.4664 50.6319 77.618C50.6319 78.7696 50.859 79.91 51.3002 80.9736C51.7415 82.0373 52.3882 83.0036 53.2032 83.8171L34.9258 65.5397C33.3357 63.9513 32.0741 62.0647 31.2134 59.9884C30.3527 57.912 29.9096 55.6862 29.9096 53.4386C29.9096 51.1909 30.3527 48.9652 31.2134 46.8887C32.0741 44.8124 33.3357 42.9261 34.9258 41.3374L71.1912 5.0112C74.404 1.80236 78.7592 0 83.2999 0C87.8408 0 92.1958 1.80236 95.4087 5.0112L95.561 5.17874C98.6978 8.40185 100.44 12.7299 100.412 17.2273C100.383 21.7248 98.5861 26.0303 95.4087 29.2135L53.2032 71.4189Z" fill="url(#paint3_linear_47_10)"/>
<path d="M53.2032 83.7714L34.9258 65.494C31.9107 62.4947 30.1329 58.4717 29.9452 54.223C29.9177 53.7156 29.9177 53.2072 29.9452 52.6999C30.1291 48.4458 31.9072 44.4167 34.9258 41.4136L47.1107 29.2287L71.2216 53.4005L53.2032 71.419C51.5709 73.06 50.6546 75.2805 50.6546 77.5952C50.6546 79.9099 51.5709 82.1304 53.2032 83.7714Z" fill="url(#paint4_linear_47_10)"/>
<defs>
<linearGradient id="paint0_linear_47_10" x1="61.7796" y1="63.4217" x2="14.6165" y2="16.2585" gradientUnits="userSpaceOnUse">
<stop offset="0.5" stop-color="#0D90FE"/>
<stop offset="0.59" stop-color="#23A5FD"/>
<stop offset="0.77" stop-color="#45C5FB"/>
<stop offset="0.91" stop-color="#5AD9FA"/>
<stop offset="1" stop-color="#62E0FA"/>
</linearGradient>
<linearGradient id="paint1_linear_47_10" x1="56.1276" y1="37.8343" x2="8.49986" y2="85.462" gradientUnits="userSpaceOnUse">
<stop stop-color="#1DFF96"/>
<stop offset="1" stop-color="#02FFF9"/>
</linearGradient>
<linearGradient id="paint2_linear_47_10" x1="34.916" y1="41.337" x2="95.5664" y2="101.972" gradientUnits="userSpaceOnUse">
<stop offset="0.39" stop-color="#006AED"/>
<stop offset="1" stop-color="#00EDFF"/>
</linearGradient>
<linearGradient id="paint3_linear_47_10" x1="38.0025" y1="68.6164" x2="98.5006" y2="8.11835" gradientUnits="userSpaceOnUse">
<stop stop-color="#1DFF96"/>
<stop offset="1" stop-color="#02FFF9"/>
</linearGradient>
<linearGradient id="paint4_linear_47_10" x1="38.0177" y1="68.6316" x2="62.22" y2="44.4141" gradientUnits="userSpaceOnUse">
<stop stop-color="#1DECA0" stop-opacity="0.85"/>
<stop offset="1" stop-color="#13ECC1" stop-opacity="0.85"/>
</linearGradient>
</defs>
</svg>
